<mxfile host="app.diagrams.net" modified="2020-12-26T08:29:34.288Z" agent="5.0 (Windows NT 6.1; Win64; x64) AppleWebKit/537.36 (KHTML, like Gecko) Chrome/87.0.4280.66 Safari/537.36" etag="qVsQW-Qw1obnelTPtILI" version="14.1.2" type="github">
  <diagram id="wbtQebCqkb7v4KOvZVG4" name="第 1 页">
    <mxGraphModel dx="981" dy="1744" grid="1" gridSize="10" guides="1" tooltips="1" connect="1" arrows="0" fold="1" page="1" pageScale="1" pageWidth="827" pageHeight="1169" math="0" shadow="0">
      <root>
        <mxCell id="0" />
        <mxCell id="1" parent="0" />
        <mxCell id="chGvUEU8lOG_RV2B_Zeu-1" value="" style="ellipse;whiteSpace=wrap;html=1;aspect=fixed;fillColor=#d5e8d4;strokeColor=#82b366;" vertex="1" parent="1">
          <mxGeometry x="280" y="-910" width="30" height="30" as="geometry" />
        </mxCell>
        <mxCell id="chGvUEU8lOG_RV2B_Zeu-2" value="" style="ellipse;whiteSpace=wrap;html=1;aspect=fixed;fillColor=#d5e8d4;strokeColor=#82b366;" vertex="1" parent="1">
          <mxGeometry x="170" y="-860" width="30" height="30" as="geometry" />
        </mxCell>
        <mxCell id="chGvUEU8lOG_RV2B_Zeu-13" style="edgeStyle=none;rounded=0;orthogonalLoop=1;jettySize=auto;html=1;entryX=0.5;entryY=0;entryDx=0;entryDy=0;" edge="1" parent="1" source="chGvUEU8lOG_RV2B_Zeu-3" target="chGvUEU8lOG_RV2B_Zeu-4">
          <mxGeometry relative="1" as="geometry" />
        </mxCell>
        <mxCell id="chGvUEU8lOG_RV2B_Zeu-3" value="" style="ellipse;whiteSpace=wrap;html=1;aspect=fixed;fillColor=#d5e8d4;strokeColor=#82b366;" vertex="1" parent="1">
          <mxGeometry x="230" y="-970" width="30" height="30" as="geometry" />
        </mxCell>
        <mxCell id="chGvUEU8lOG_RV2B_Zeu-4" value="" style="ellipse;whiteSpace=wrap;html=1;aspect=fixed;fillColor=#d5e8d4;strokeColor=#82b366;" vertex="1" parent="1">
          <mxGeometry x="200" y="-910" width="30" height="30" as="geometry" />
        </mxCell>
        <mxCell id="chGvUEU8lOG_RV2B_Zeu-5" value="" style="ellipse;whiteSpace=wrap;html=1;aspect=fixed;fillColor=#d5e8d4;strokeColor=#82b366;" vertex="1" parent="1">
          <mxGeometry x="280" y="-800" width="30" height="30" as="geometry" />
        </mxCell>
        <mxCell id="chGvUEU8lOG_RV2B_Zeu-6" value="" style="ellipse;whiteSpace=wrap;html=1;aspect=fixed;fillColor=#d5e8d4;strokeColor=#82b366;" vertex="1" parent="1">
          <mxGeometry x="120" y="-800" width="30" height="30" as="geometry" />
        </mxCell>
        <mxCell id="chGvUEU8lOG_RV2B_Zeu-7" value="" style="ellipse;whiteSpace=wrap;html=1;aspect=fixed;fillColor=#d5e8d4;strokeColor=#82b366;" vertex="1" parent="1">
          <mxGeometry x="310" y="-860" width="30" height="30" as="geometry" />
        </mxCell>
        <mxCell id="chGvUEU8lOG_RV2B_Zeu-8" value="" style="ellipse;whiteSpace=wrap;html=1;aspect=fixed;fillColor=#d5e8d4;strokeColor=#82b366;" vertex="1" parent="1">
          <mxGeometry x="260" y="-860" width="30" height="30" as="geometry" />
        </mxCell>
        <mxCell id="chGvUEU8lOG_RV2B_Zeu-9" value="" style="ellipse;whiteSpace=wrap;html=1;aspect=fixed;fillColor=#d5e8d4;strokeColor=#82b366;" vertex="1" parent="1">
          <mxGeometry x="220" y="-800" width="30" height="30" as="geometry" />
        </mxCell>
        <mxCell id="chGvUEU8lOG_RV2B_Zeu-10" value="" style="ellipse;whiteSpace=wrap;html=1;aspect=fixed;fillColor=#d5e8d4;strokeColor=#82b366;" vertex="1" parent="1">
          <mxGeometry x="170" y="-800" width="30" height="30" as="geometry" />
        </mxCell>
      </root>
    </mxGraphModel>
  </diagram>
</mxfile>
